<?xml version="1.0" standalone="no"?>
<!DOCTYPE svg PUBLIC "-//W3C//DTD SVG 1.1//EN" "http://www.w3.org/Graphics/SVG/1.1/DTD/svg11.dtd" >
<svg xmlns="http://www.w3.org/2000/svg" xmlns:xlink="http://www.w3.org/1999/xlink" version="1.1">
<metadata></metadata>
<defs>
<font id="freesetlightcregular" horiz-adv-x="1257" >
<font-face units-per-em="2048" ascent="1475" descent="-573" />
<missing-glyph horiz-adv-x="477" />
<glyph horiz-adv-x="0" />
<glyph horiz-adv-x="682" />
<glyph unicode=" "  horiz-adv-x="477" />
<glyph unicode="&#x09;" horiz-adv-x="477" />
<glyph unicode="&#xa0;" horiz-adv-x="477" />
<glyph unicode="!" horiz-adv-x="577" d="M205 0v176h168v-176h-168zM205 1434h168l-25 -1076h-119z" />
<glyph unicode="&#x22;" horiz-adv-x="673" d="M102 1434h195l-45 -355h-105zM377 1434h194l-45 -355h-104z" />
<glyph unicode="#" horiz-adv-x="1325" d="M115 410l20 118h232l67 406h-231l20 119h232l53 323h94l-53 -323h336l53 323h94l-53 -323h231l-20 -119h-232l-67 -406h231l-20 -118h-232l-53 -324h-94l53 324h-336l-53 -324h-94l53 324h-231zM461 528h336l67 406h-336z" />
<glyph unicode="$" d="M225 1094q0 81 31 147t83.5 107.5t118 65t138.5 28.5v168h90v-164q163 0 313 -51l-18 -127q-142 61 -295 61v-532q86 -43 141.5 -75t107 -73t79.5 -83.5t44.5 -97.5t16.5 -124q0 -76 -28 -137t-69.5 -97.5t-97 -62.5t-101.5 -37t-93 -16v-170h-90v164q-187 -3 -360 63 l14 133q168 -81 346 -78v584q-187 82 -279 173.5t-92 230.5zM371 1094q0 -79 56 -136t169 -110v475q-68 -11 -115 -36.5t-69.5 -59.5t-31.5 -66t-9 -67zM686 115q244 58 244 233q0 72 -31 127t-80.5 91t-132.5 75v-526z" />
<glyph unicode="%" horiz-adv-x="2017" d="M205 1063q0 171 95 277t245 106t245 -106t95 -277t-95 -277t-245 -106t-245 106t-95 277zM334 1063q0 -146 58.5 -213.5t152.5 -67.5t152.5 67.5t58.5 213.5t-58.5 213t-152.5 67t-152.5 -67t-58.5 -213zM463 55l1003 1391l82 -68l-1003 -1390zM1133 371q0 171 95 277 t245 106t244.5 -106t94.5 -277t-94.5 -277t-244.5 -106t-245 106t-95 277zM1262 371q0 -146 58.5 -213.5t152.5 -67.5t152 67.5t58 213.5t-58 213t-152 67t-152.5 -67t-58.5 -213z" />
<glyph unicode="&#x26;" horiz-adv-x="1497" d="M143 373q0 50 8 95.5t31 98.5t60.5 96.5t102 83t149.5 64.5q-104 106 -135 148q-62 85 -62 182q0 61 21.5 115t64 98.5t114.5 70t165 25.5q74 0 138 -19t114 -56t79 -97t29 -137q0 -57 -18 -105.5t-45.5 -83t-74.5 -67t-91 -54.5t-109 -49l395 -409q105 157 113 424h135 q-16 -336 -172 -539l240 -258h-185l-143 160q-89 -94 -188 -135t-244 -41q-125 0 -223.5 36.5t-155 95t-85 124.5t-28.5 133zM289 381q0 -119 94.5 -200t257.5 -81q211 0 354 164l-440 465q-60 -20 -106.5 -48.5t-74 -62t-46 -65.5t-26.5 -67t-10.5 -58t-2.5 -47zM432 1141 q0 -51 35.5 -112t71 -98.5t73.5 -70.5q145 56 210 129t65 152q0 80 -56.5 136t-168.5 56q-64 0 -110 -17t-68.5 -38.5t-35 -52.5t-14.5 -48t-2 -36z" />
<glyph unicode="'" horiz-adv-x="399" d="M102 1434h195l-45 -355h-105z" />
<glyph unicode="(" horiz-adv-x="864" d="M205 672q0 234 85.5 458.5t252.5 491.5l116 2q-309 -512 -309 -952q0 -47 10 -116t36.5 -182t89 -265.5t151.5 -311.5l-100 -2q-178 269 -255 491t-77 386z" />
<glyph unicode=")" horiz-adv-x="864" d="M205 1624l117 -2q166 -266 251.5 -490.5t85.5 -459.5q0 -165 -77 -387t-254 -490l-101 2q89 159 151.5 311.5t89 265.5t36.5 182t10 116q0 440 -309 952z" />
<glyph unicode="*" horiz-adv-x="1030" d="M164 924l248 133v6l-248 133l57 100l240 -147l4 4l-8 281h116l-8 -281l4 -4l240 147l57 -100l-248 -133v-6l248 -133l-57 -103l-240 150l-6 -2l8 -283h-112l8 283l-6 2l-240 -150z" />
<glyph unicode="+" horiz-adv-x="1548" d="M143 674v114h574v574h114v-574h574v-114h-574v-574h-114v574h-574z" />
<glyph unicode="," horiz-adv-x="641" d="M174 -264l113 446h180l-152 -446h-141z" />
<glyph unicode="-" horiz-adv-x="860" d="M205 492v108h450v-108h-450z" />
<glyph unicode="." horiz-adv-x="577" d="M205 0v176h168v-176h-168z" />
<glyph unicode="/" horiz-adv-x="1120" d="M102 -483l826 1953l90 -36l-825 -1954z" />
<glyph unicode="0" d="M147 717q0 162 19 284t80 228q130 221 383 221t383 -221q61 -105 79.5 -227t18.5 -285t-18.5 -285t-79.5 -227q-130 -221 -383 -221t-383 221q-61 106 -80 228t-19 284zM293 717q0 -319 69 -451q84 -166 267 -166q182 0 266 166q70 134 70 451q0 316 -70 450 q-84 166 -266 166q-183 0 -267 -166q-69 -132 -69 -450z" />
<glyph unicode="1" d="M317 1174l324 260h125v-1434h-135v1276l-240 -197z" />
<glyph unicode="2" d="M197 0v125q45 49 135 147.5t135 147.5q143 152 170 184q47 53 81 98t71 107t57 131t20 141q0 134 -90 199q-73 53 -203 53q-170 0 -315 -82l-25 117q164 82 351 82q202 0 309 -86q53 -43 86 -111.5t33 -156.5q0 -146 -74 -287q-28 -54 -90.5 -137.5t-110.5 -139.5 q-45 -54 -144 -161.5t-144 -151.5l-103 -100v-4l131 2h584v-117h-864z" />
<glyph unicode="3" d="M162 49l20 125q154 -74 318 -74q211 0 317 99q82 78 82 204q0 131 -86 205q-44 38 -107.5 58t-127.5 20h-211v117h213q64 0 126 24.5t105 65.5q76 76 76 176q0 125 -88 197q-85 67 -238 67q-178 0 -330 -71l-12 124q166 64 352 64q231 0 359 -123q96 -96 96 -229 t-74 -228q-70 -89 -196 -122v-3q106 -20 182 -90q106 -98 106 -258q0 -173 -120 -282q-145 -131 -414 -131q-181 0 -348 65z" />
<glyph unicode="4" d="M121 342v123l651 969h180v-975h219v-117h-219v-342h-135v342h-696zM252 461l2 -4l108 2h455v725l4 127h-6l-67 -117l-433 -645z" />
<glyph unicode="5" d="M221 35v133q163 -68 322 -68q197 0 295 119q73 86 73 225q0 156 -98 236q-60 50 -139.5 67t-181.5 17q-145 0 -269 -37v707h766v-117h-631v-457q102 21 201 21q198 0 324 -88q174 -122 174 -342q0 -188 -121 -316q-144 -151 -414 -151q-145 0 -301 51z" />
<glyph unicode="6" d="M170 700q0 332 135 529q70 102 185.5 161.5t306.5 59.5q101 0 243 -31l-12 -121q-109 35 -256 35q-115 0 -198.5 -30t-149.5 -113q-41 -51 -68 -112t-38.5 -130t-15 -105t-5.5 -95l-2 -46h2q21 38 49.5 70.5t69.5 64t98.5 50t124.5 18.5q105 0 198.5 -36.5t153.5 -104.5 q107 -120 107 -322q0 -191 -113 -321q-119 -137 -338 -137q-164 0 -276 82q-52 38 -89 90t-58.5 107t-34 129.5t-16 143.5t-3.5 164zM322 444q0 -155 84 -247q88 -97 231 -97t231 97q84 92 84 247q0 156 -84 248q-87 96 -231 96t-231 -96q-84 -92 -84 -248z" />
<glyph unicode="7" d="M188 1317v117h881v-123l-553 -1311h-154l564 1317h-738z" />
<glyph unicode="8" d="M145 362q0 157 119 259q97 81 230 116v2q-53 22 -111 59t-94 76q-90 97 -90 232q0 144 127 248q119 96 290 96q200 0 312 -82q131 -96 131 -262q0 -137 -88 -232q-35 -38 -93 -76t-112 -61v-2q70 -21 139 -56.5t109 -72.5q100 -92 100 -254q0 -156 -117 -258 q-124 -110 -356 -110q-229 0 -365 114q-131 111 -131 264zM291 365q0 -120 100 -193q98 -72 248 -72q147 0 238 70q92 75 92 178q0 129 -107 209q-43 33 -117 67t-141 54q-49 -14 -91.5 -32t-84 -45.5t-71.5 -60.5t-48 -78t-18 -97zM344 1106q0 -123 80 -195 q34 -31 100.5 -67t118.5 -56q51 22 113.5 63t95.5 79q61 71 61 176q0 101 -69 162q-75 65 -223 65q-127 0 -203 -71q-74 -66 -74 -156z" />
<glyph unicode="9" d="M158 985q0 199 114 326q126 139 340 139q79 0 146 -17.5t113 -47.5t74 -56t50 -55q64 -91 83.5 -210t19.5 -282q0 -43 -0.5 -68.5t-4 -86t-11 -104.5t-22.5 -107.5t-36.5 -112.5t-55.5 -101t-77 -91q-141 -127 -379 -127q-142 0 -285 34l9 119q114 -37 284 -37 q209 0 326 144q118 148 123 415l2 74h-6q-37 -61 -84.5 -104.5t-95.5 -63t-86 -27.5t-74 -8q-106 0 -200 34.5t-155 101.5q-53 59 -82.5 142.5t-29.5 176.5zM303 985q0 -153 88 -246q87 -92 234 -92q138 0 229 98q90 95 90 250q0 60 -26.5 127t-71.5 117q-84 94 -234 94 q-70 0 -130 -28t-99 -72q-80 -86 -80 -248z" />
<glyph unicode=":" horiz-adv-x="577" d="M205 0v176h168v-176h-168zM205 874v177h168v-177h-168z" />
<glyph unicode=";" horiz-adv-x="641" d="M174 -264l113 446h180l-152 -446h-141zM270 874v177h168v-177h-168z" />
<glyph unicode="&#x3c;" horiz-adv-x="1325" d="M115 723l1044 659v-116l-852 -543l852 -543v-117z" />
<glyph unicode="=" horiz-adv-x="1548" d="M143 487v115h1262v-115h-1262zM143 860v115h1262v-115h-1262z" />
<glyph unicode="&#x3e;" horiz-adv-x="1325" d="M166 63l1044 660l-1044 659v-116l852 -543l-852 -543v-117z" />
<glyph unicode="?" horiz-adv-x="911" d="M102 1280v127q125 43 265 43q209 0 325.5 -91t116.5 -251q0 -109 -42.5 -193.5t-125.5 -175.5q-14 -15 -51.5 -54.5t-56 -61.5t-43 -57.5t-35.5 -71t-11 -74.5v-62h-116v62q0 42 10 82t23.5 69t39 65.5t44 58t53 60t51.5 58.5q115 136 115 295q0 52 -18 92t-49 63 t-63 38.5t-69.5 21.5t-57.5 8t-38 2q-151 0 -267 -53zM301 0v176h168v-176h-168z" />
<glyph unicode="@" horiz-adv-x="1644" d="M102 680q0 153 53.5 293t149 246t237 168.5t306.5 62.5q201 0 357.5 -74t246.5 -219t90 -340q0 -126 -35.5 -229.5t-94 -167.5t-128.5 -98.5t-143 -34.5q-79 0 -124.5 53.5t-31.5 128.5h-4q-49 -77 -125 -129.5t-156 -52.5q-54 0 -104 17t-92 50.5t-67 91.5t-25 132 q0 236 129.5 394t306.5 158q75 0 131 -40t82 -111l24 137h103l-107 -614q-24 -135 84 -135q115 0 207 125.5t92 326.5q0 128 -48 234.5t-131 177.5t-195 110t-240 39q-94 0 -188 -27.5t-181 -85.5t-154 -139t-107 -197t-40 -251q0 -182 80 -324.5t226 -222.5t335 -80 q112 0 198 16t181 52v-78q-103 -34 -178 -50t-172 -16q-56 0 -118 8.5t-136 30.5t-142 56t-133.5 90t-113 126.5t-76.5 171.5t-29 220zM520 582q0 -57 18 -99t48.5 -64t62.5 -32t66 -10q30 0 63 10.5t69.5 35t68.5 61t59 94t41 127.5q8 43 8 131q0 101 -57 154.5t-133 53.5 q-55 0 -109.5 -31.5t-100.5 -88t-75 -146.5t-29 -196z" />
<glyph unicode="A" horiz-adv-x="1376" d="M31 0l569 1434h176l570 -1434h-146l-158 395h-708l-158 -395h-145zM379 512h618l-260 653l-47 135h-4l-47 -135z" />
<glyph unicode="B" horiz-adv-x="1181" d="M205 0v1434h383q109 0 191.5 -28.5t131.5 -79t73 -114.5t24 -139q0 -242 -248 -323v-7q129 -25 209 -119t80 -221q0 -82 -23.5 -148t-58 -107t-84.5 -71t-92 -44.5t-93 -22.5t-74.5 -9t-48.5 -1h-370zM340 117h217q346 0 346 284q0 131 -92 206t-240 75h-231v-565z M340 799h229q139 0 216 75.5t77 196.5q0 124 -81 185t-208 61h-233v-518z" />
<glyph unicode="C" horiz-adv-x="1251" d="M113 694q0 118 25.5 225.5t82.5 205t140.5 169t208 114t276.5 42.5q186 0 330 -55l-13 -123q-156 61 -329 61q-176 0 -308 -85.5t-200 -230t-68 -325.5q0 -134 44.5 -246.5t121 -187.5t179 -116.5t218.5 -41.5q201 0 369 68v-129q-171 -55 -359 -55q-145 0 -265.5 39 t-203 106.5t-139.5 158.5t-83.5 193t-26.5 213z" />
<glyph unicode="D" horiz-adv-x="1409" d="M205 0v1434h350q38 0 69.5 -1t90 -8.5t107 -20t110.5 -38.5t110.5 -61.5t98 -91t82 -125t53 -166.5t20.5 -211q0 -328 -197.5 -519.5t-543.5 -191.5h-350zM340 117h201q131 0 240 35.5t193 106.5t130.5 188t46.5 270q0 600 -610 600h-201v-1200z" />
<glyph unicode="E" horiz-adv-x="1042" d="M205 0v1434h696v-117h-561v-518h534v-117h-534v-565h600v-117h-735z" />
<glyph unicode="F" horiz-adv-x="972" d="M205 0v1434h686v-117h-551v-518h520v-117h-520v-682h-135z" />
<glyph unicode="G" horiz-adv-x="1456" d="M113 717q0 338 204.5 535.5t554.5 197.5q179 0 371 -78l-20 -127q-180 88 -351 88q-130 0 -240.5 -40t-194.5 -115.5t-131.5 -194t-47.5 -266.5q0 -176 71 -314.5t212 -220.5t331 -82q143 0 285 50v483h-348v117h483v-687q-207 -79 -420 -79q-160 0 -298 49.5 t-240.5 140.5t-161.5 231t-59 312z" />
<glyph unicode="H" horiz-adv-x="1425" d="M205 0v1434h135v-633h745v633h136v-1434h-136v684h-745v-684h-135z" />
<glyph unicode="I" horiz-adv-x="544" d="M205 0v1434h135v-1434h-135z" />
<glyph unicode="J" horiz-adv-x="718" d="M31 4l12 119q57 -23 137 -23q199 0 199 258v1076h135v-1090q0 -75 -16 -134.5t-39 -96.5t-58.5 -63.5t-63 -39t-65.5 -19t-52.5 -7t-37.5 -0.5q-78 0 -151 20z" />
<glyph unicode="K" horiz-adv-x="1294" d="M205 0v1434h135v-580v-82h2l49 51l613 611h172l-697 -678l774 -756h-190l-686 686l-35 39l-2 -2v-68v-655h-135z" />
<glyph unicode="L" horiz-adv-x="966" d="M205 0v1434h135v-1317h586v-117h-721z" />
<glyph unicode="M" horiz-adv-x="1916" d="M205 0v1434h213l477 -1115l59 -190h9l59 190l477 1115h213v-1434h-135v1110l4 195h-8l-70 -189l-475 -1116h-139l-475 1116l-70 189h-8l4 -195v-1110h-135z" />
<glyph unicode="N" horiz-adv-x="1480" d="M205 0v1434h174l698 -1160l64 -131h4l-4 166v1125h135v-1434h-174l-688 1137l-76 153h-6l8 -166v-1124h-135z" />
<glyph unicode="O" horiz-adv-x="1523" d="M113 715q0 117 25 224.5t77.5 200.5t128 162t183 108.5t235.5 39.5t235.5 -39.5t183 -108.5t128 -162t77.5 -200.5t25 -224.5q0 -173 -50 -313t-138 -230.5t-205.5 -139t-255.5 -48.5t-255.5 48.5t-205.5 139t-138 230.5t-50 313zM258 715q0 -125 28.5 -228.5t77 -174 t113.5 -119.5t136.5 -71t148.5 -22t148.5 22t136.5 71t113.5 119.5t77 174t28.5 228.5t-28.5 229t-77 175t-113.5 120t-136.5 71.5t-148.5 22.5t-148.5 -22.5t-136.5 -71.5t-113.5 -120t-77 -175t-28.5 -229z" />
<glyph unicode="P" horiz-adv-x="1089" d="M205 0v1434h373q198 0 314 -114t116 -300q0 -187 -115.5 -300.5t-314.5 -113.5h-238v-606h-135zM340 723h211q22 0 42 1.5t53 8t60.5 18t57.5 34t50.5 52.5t34 77.5t13.5 105.5q0 60 -16 109t-39 79t-56.5 52.5t-61 33t-61 16t-48 6.5t-29.5 1h-211v-594z" />
<glyph unicode="Q" horiz-adv-x="1523" d="M113 715q0 117 25 224.5t77.5 200.5t128 162t183 108.5t235.5 39.5q158 0 284.5 -60.5t204.5 -163.5t119 -233.5t41 -277.5q0 -66 -9 -135t-35.5 -155t-68.5 -158t-115 -136.5t-167 -97.5l332 -301h-189l-289 260q-49 -8 -108 -8q-138 0 -255.5 48.5t-205.5 139 t-138 230.5t-50 313zM258 715q0 -125 28.5 -228.5t77 -174t113.5 -119.5t136.5 -71t148.5 -22t148.5 22t136.5 71t113.5 119.5t77 174t28.5 228.5t-28.5 229t-77 175t-113.5 120t-136.5 71.5t-148.5 22.5t-148.5 -22.5t-136.5 -71.5t-113.5 -120t-77 -175t-28.5 -229z" />
<glyph unicode="R" horiz-adv-x="1228" d="M205 0v1434h368q106 0 187 -26t127.5 -65t76 -92.5t39 -101.5t9.5 -100q0 -130 -88 -225t-222 -109v-4q14 -2 27.5 -6t23.5 -8t20.5 -13t17 -13.5t15.5 -18t12.5 -17.5t11.5 -20t9.5 -18.5t10 -20.5t8.5 -19l248 -557h-150l-235 530q-14 31 -26.5 50t-35 40.5t-57 31.5 t-82.5 10h-180v-662h-135zM340 778h199q142 0 234.5 79t92.5 190q0 52 -14.5 97.5t-45.5 85.5t-88 63.5t-134 23.5h-244v-539z" />
<glyph unicode="S" horiz-adv-x="1015" d="M102 47l15 133q74 -36 161.5 -58t157.5 -22q56 0 111.5 14t106 42t82.5 78.5t32 115.5q0 64 -20.5 113.5t-75.5 94t-85.5 63t-115.5 63.5q-19 11 -29 16q-132 70 -184 111q-145 113 -145 283q0 42 8.5 81.5t27 81t52.5 75t81 61t117 42.5t156 15q158 0 311 -51l-18 -127 q-142 61 -293 61q-75 0 -131.5 -17t-87.5 -42t-49.5 -59.5t-23.5 -62t-5 -58.5q0 -22 4.5 -43t10 -37.5t19.5 -34.5t23 -29.5t31 -28.5t33.5 -25.5t40.5 -25.5t41.5 -23.5t47.5 -25.5t48 -26q64 -35 102.5 -58t85 -56t73 -63t50.5 -69.5t34.5 -86t10.5 -102.5 q0 -59 -16.5 -112.5t-53.5 -102t-91 -84t-135.5 -56.5t-180.5 -21q-174 0 -334 63z" />
<glyph unicode="T" horiz-adv-x="1056" d="M31 1317v117h995v-117h-430v-1317h-135v1317h-430z" />
<glyph unicode="U" horiz-adv-x="1458" d="M205 477v957h135v-953q0 -86 25.5 -154t65 -109.5t92.5 -69t103.5 -38t102.5 -10.5t102.5 10.5t103.5 38t92.5 69t65 109.5t25.5 154v953h135v-957q0 -226 -142.5 -359.5t-381.5 -133.5t-381.5 133.5t-142.5 359.5z" />
<glyph unicode="V" horiz-adv-x="1333" d="M41 1434h149l449 -1139l43 -166h4l51 166l420 1139h135l-532 -1434h-152z" />
<glyph unicode="W" horiz-adv-x="1980" d="M41 1434h147l342 -1160l37 -157h4l33 159l322 1158h147l342 -1160l37 -157h4l33 159l321 1158h129l-401 -1434h-170l-336 1090l-43 159h-6l-41 -162l-289 -1087h-170z" />
<glyph unicode="X" horiz-adv-x="1316" d="M41 0l528 760l-497 674h168l368 -519l45 -67h2l47 67l367 519h156l-486 -674l537 -760h-168l-371 526l-84 138h-4l-86 -144l-360 -520h-162z" />
<glyph unicode="Y" horiz-adv-x="1275" d="M20 1434h158l400 -635l49 -84l63 98l400 621h165l-563 -836v-598h-135v598z" />
<glyph unicode="Z" horiz-adv-x="1150" d="M102 0v127l684 1053l91 137l-3 2l-161 -2h-594v117h899v-138l-670 -1040l-92 -137l2 -4l137 2h654v-117h-947z" />
<glyph unicode="[" horiz-adv-x="675" d="M205 -449v1883h368v-117h-225v-1649h225v-117h-368z" />
<glyph unicode="\" horiz-adv-x="1243" d="M164 1434l90 36l825 -1953l-90 -37z" />
<glyph unicode="]" horiz-adv-x="675" d="M102 -332h226v1649h-226v117h369v-1883h-369v117z" />
<glyph unicode="^" horiz-adv-x="1081" d="M115 887l426 575l426 -575h-113l-313 422l-314 -422h-112z" />
<glyph unicode="_" horiz-adv-x="1443" d="M164 -350h1188v-99h-1188v99z" />
<glyph unicode="`" horiz-adv-x="702" d="M164 1548h192l183 -272h-105z" />
<glyph unicode="a" horiz-adv-x="1060" d="M92 281q0 71 23 128t58 94t89.5 64t104 41t115.5 22t110.5 9.5t101.5 1.5h68v37q0 23 -0.5 39.5t-5.5 48t-13.5 54.5t-26.5 50.5t-43 45.5t-64.5 30t-88.5 12q-169 0 -313 -79v122q149 66 313 66q371 0 371 -391v-447l6 -229h-115v178h-4q-105 -194 -342 -194 q-163 0 -253.5 84.5t-90.5 212.5zM227 289q0 -85 59 -141t148 -56q152 0 240 97t88 268v75h-117q-53 0 -98.5 -3.5t-95.5 -12.5t-88 -26.5t-70 -43.5t-49 -66t-17 -91z" />
<glyph unicode="b" horiz-adv-x="1163" d="M164 0l8 203v1358h129v-699q111 205 317 205q72 0 137 -18.5t123 -61t100.5 -104t67.5 -154t25 -205.5q0 -114 -24.5 -206t-66.5 -153.5t-100.5 -102.5t-123.5 -59.5t-138 -18.5q-110 0 -194 64.5t-131 168.5h-6l-2 -217h-121zM301 524q0 -95 21.5 -171.5t54.5 -124 t76.5 -79t84 -44.5t80.5 -13t80.5 13t84 44.5t77 79t55 124t21.5 171.5q0 96 -21.5 173t-55 124.5t-77 79.5t-84 44.5t-80.5 12.5t-80.5 -12.5t-84 -44.5t-76.5 -79.5t-54.5 -124.5t-21.5 -173z" />
<glyph unicode="c" horiz-adv-x="942" d="M92 524q0 106 33 201.5t96.5 173t166.5 123t233 45.5q126 0 251 -41l-6 -115q-124 47 -243 47q-181 0 -288.5 -120t-107.5 -314q0 -109 33 -193.5t91 -135.5t130.5 -77t155.5 -26q118 0 231 43l13 -110q-107 -41 -244 -41q-253 0 -399 148.5t-146 391.5z" />
<glyph unicode="d" horiz-adv-x="1163" d="M92 524q0 113 25 205t67.5 154t100.5 104t123 61t137 19q200 0 317 -205v699h129v-1358l8 -203h-120l-2 217h-7q-43 -99 -125.5 -166t-199.5 -67q-73 0 -138 18.5t-123.5 59.5t-100.5 102.5t-66.5 153.5t-24.5 206zM227 524q0 -95 21.5 -171.5t55 -124t77 -79t84 -44.5 t80.5 -13t80.5 13t84 44.5t76.5 79t54.5 124t21.5 171.5q0 96 -21.5 173t-54.5 124.5t-76.5 79.5t-84 44.5t-80.5 12.5t-80.5 -12.5t-84 -44.5t-77 -79.5t-55 -124.5t-21.5 -173z" />
<glyph unicode="e" horiz-adv-x="1040" d="M82 543q0 243 127 383.5t330 140.5q419 0 419 -539v-41h-741v-11q0 -40 6 -80q7 -46 30 -103t59.5 -100t102 -72t150.5 -29q181 0 314 68v-119q-134 -57 -316 -57q-226 0 -353.5 145.5t-127.5 413.5zM217 596h606v18q0 26 -2 53q-3 36 -19 91.5t-44.5 97t-85 72 t-133.5 30.5t-139 -31.5t-100.5 -84t-59.5 -115.5t-23 -131z" />
<glyph unicode="f" horiz-adv-x="692" d="M25 942v109h219v215q0 147 73 224t197 77q60 0 125 -21v-106q-59 18 -115 18q-151 0 -151 -182v-225h248v-109h-248v-942h-129v942h-219z" />
<glyph unicode="g" horiz-adv-x="1163" d="M92 526q0 141 37 248.5t101.5 169.5t143.5 92.5t171 30.5q110 0 194 -64.5t131 -168.5h7l2 217h120l-8 -203v-846q0 -34 -2.5 -64t-14 -79.5t-31 -89.5t-58.5 -84t-92 -74t-135.5 -50t-184.5 -20q-150 0 -283 58v127q158 -76 308 -76q169 0 266.5 95t97.5 269v174 q-111 -204 -317 -204q-91 0 -170 31t-143.5 93.5t-102 169.5t-37.5 248zM227 526q0 -96 21.5 -173t55 -124.5t77 -79.5t84 -44.5t80.5 -12.5t80.5 12.5t84 44.5t76.5 79.5t54.5 124.5t21.5 173q0 95 -21.5 171.5t-54.5 124t-76.5 79t-84 44.5t-80.5 13t-80.5 -13t-84 -44.5 t-77 -79t-55 -124t-21.5 -171.5z" />
<glyph unicode="h" horiz-adv-x="1153" d="M164 0v1561h129v-498l-10 -229h4q42 103 130 168t206 65q70 0 126 -15t93.5 -39t65.5 -59.5t43 -70.5t24 -79t11.5 -78t2.5 -73v-653h-129v647q0 38 -0.5 57.5t-5.5 58t-14 60.5t-27.5 51t-45.5 45t-69 27.5t-96 11.5q-126 0 -217.5 -100.5t-91.5 -245.5v-612h-129z" />
<glyph unicode="i" horiz-adv-x="468" d="M164 1352v164h141v-164h-141zM170 0v1051h129v-1051h-129z" />
<glyph unicode="j" horiz-adv-x="456" d="M-61 -326q40 -12 98 -12q25 0 44 5.5t39.5 21.5t32 53.5t11.5 93.5v1215h129v-1203q0 -33 -2.5 -60t-9.5 -64t-23 -64.5t-40.5 -53t-65 -39t-93.5 -13.5q-65 0 -120 16v104zM164 1356v164h129v-164h-129z" />
<glyph unicode="k" horiz-adv-x="1042" d="M164 0v1561h129v-973h10l477 463h168l-518 -486l571 -565h-182l-516 516h-10v-516h-129z" />
<glyph unicode="l" horiz-adv-x="456" d="M164 0v1561h129v-1561h-129z" />
<glyph unicode="m" horiz-adv-x="1753" d="M164 1051h127v-205h4q39 97 123 159t196 62q124 0 199 -61t98 -160h2q45 99 134 160t208 61q334 0 334 -360v-7v-700h-129v694q0 29 -2 52t-8.5 56.5t-21.5 58.5t-38 48.5t-61 36t-88 12.5q-72 0 -129.5 -28.5t-93.5 -77t-55 -110t-19 -130.5v-612h-129v694 q0 22 -1.5 39.5t-7 52.5t-20 61.5t-37.5 53.5t-63 42t-92 15q-126 0 -210.5 -102.5t-84.5 -243.5v-612h-129v852z" />
<glyph unicode="n" horiz-adv-x="1159" d="M164 1051h115v-217h4q43 100 130 166.5t214 66.5q70 0 126.5 -15t94.5 -38.5t66 -59t43 -70t24 -79t11.5 -78.5t2.5 -74v-653h-129v647v45.5t-2.5 45.5t-6.5 47.5t-13 43.5t-21.5 42.5t-32 34t-45 28.5t-60.5 17t-77 7q-131 0 -220 -102t-89 -244v-612h-129v809z" />
<glyph unicode="o" horiz-adv-x="1155" d="M92 524q0 246 133 394.5t353 148.5t352.5 -148.5t132.5 -394.5q0 -244 -133 -392t-352 -148t-352.5 148t-133.5 392zM227 524q0 -63 12.5 -123t40.5 -116.5t68 -99t99.5 -68t130.5 -25.5q88 0 157.5 38.5t110.5 102t61.5 138t20.5 153.5q0 80 -20.5 155t-61.5 138.5 t-110.5 102t-157.5 38.5q-71 0 -130.5 -25.5t-99.5 -68t-68 -99t-40.5 -117.5t-12.5 -124z" />
<glyph unicode="p" horiz-adv-x="1163" d="M164 1051h123v-217h6q15 42 37.5 78t60 73.5t96 59.5t131.5 22q216 0 334.5 -144.5t118.5 -396.5q0 -139 -37.5 -246t-102 -170t-144 -94.5t-169.5 -31.5q-103 0 -184.5 55t-130.5 149h-6l4 -100v-537h-129v1297zM301 526q0 -96 21.5 -173t54.5 -124.5t76.5 -79.5 t84 -44.5t80.5 -12.5t80.5 12.5t84 44.5t77 79.5t55 124.5t21.5 173q0 95 -21.5 171.5t-55 124t-77 79t-84 44.5t-80.5 13t-80.5 -13t-84 -44.5t-76.5 -79t-54.5 -124t-21.5 -171.5z" />
<glyph unicode="q" horiz-adv-x="1163" d="M92 526q0 141 37 248.5t101.5 169.5t143.5 92.5t171 30.5q117 0 199.5 -67t125.5 -166h7l2 217h120l-8 -203v-1297h-129v637q-116 -204 -317 -204q-91 0 -170 31t-143.5 94t-102 170t-37.5 247zM227 526q0 -96 21.5 -173t55 -124.5t77 -79.5t84 -44.5t80.5 -12.5 t80.5 12.5t84 44.5t76.5 79.5t54.5 124.5t21.5 173q0 95 -21.5 171.5t-54.5 124t-76.5 79t-84 44.5t-80.5 13t-80.5 -13t-84 -44.5t-77 -79t-55 -124t-21.5 -171.5z" />
<glyph unicode="r" horiz-adv-x="720" d="M164 1051h123v-226h2q10 45 29 85t49 77t75.5 58.5t100.5 21.5q57 0 116 -18v-123q-53 20 -112 20q-61 0 -110.5 -33t-77.5 -85.5t-43 -110t-15 -113.5v-604h-129v858z" />
<glyph unicode="s" horiz-adv-x="858" d="M102 31l9 123q133 -62 272 -62q109 0 173.5 50.5t64.5 140.5q0 46 -12 78t-47.5 58.5t-60.5 39t-89 40.5q-16 7 -25 11q-35 15 -58 26t-54 28.5t-51.5 33.5t-42.5 39t-34.5 47.5t-21 57t-8.5 69.5q0 119 98 187.5t254 68.5q132 0 250 -55l-8 -103q-116 49 -248 49 q-57 0 -102.5 -11t-81 -45.5t-35.5 -90.5q0 -33 9 -57.5t24.5 -44t52 -40.5t75 -38.5t109.5 -46.5q36 -16 64 -30.5t63.5 -41.5t58.5 -57t39.5 -75t16.5 -97q0 -56 -21 -107.5t-64 -95.5t-118.5 -70t-173.5 -26q-145 0 -277 47z" />
<glyph unicode="t" horiz-adv-x="684" d="M16 942v109h215v262l129 47v-309h250v-109h-250v-645q0 -87 14.5 -132.5t39.5 -59t71 -13.5q79 0 131 23v-109q-63 -22 -145 -22q-66 0 -113.5 21.5t-71 51t-37 76t-16 78.5t-2.5 78v653h-215z" />
<glyph unicode="u" horiz-adv-x="1142" d="M164 371v680h129v-691q0 -268 229 -268q133 0 226.5 99.5t93.5 250.5v609h129v-811l8 -240h-121v209h-2q-40 -103 -128.5 -164t-205.5 -61q-48 0 -91.5 7.5t-94 32.5t-87 65.5t-61 113t-24.5 168.5z" />
<glyph unicode="v" horiz-adv-x="960" d="M41 1051h133l283 -858l20 -82h6l21 82l282 858h134l-363 -1051h-154z" />
<glyph unicode="w" horiz-adv-x="1619" d="M41 1051h131l234 -801l32 -141h6l33 141l252 801h162l252 -801l33 -141h6l32 141l234 801h131l-315 -1051h-162l-266 844l-23 98h-6l-23 -98l-266 -844h-162z" />
<glyph unicode="x" horiz-adv-x="1019" d="M61 0l365 561l-340 490h164l199 -306l57 -98h2l57 101l185 303h151l-321 -490l378 -561h-167l-234 379l-51 94h-2l-53 -94l-240 -379h-150z" />
<glyph unicode="y" horiz-adv-x="1003" d="M61 1051h138l276 -801l33 -105h2l33 103l266 803h133l-448 -1289q-36 -102 -94.5 -157.5t-159.5 -55.5q-41 0 -115 19l12 115q86 -19 90 -19q63 0 102 42t66 122l45 137z" />
<glyph unicode="z" horiz-adv-x="970" d="M92 0v106l541 730l84 106h-615v109h750v-123l-537 -719l-82 -100h646v-109h-787z" />
<glyph unicode="{" horiz-adv-x="704" d="M102 510v88q52 7 89 28.5t57.5 48t31.5 67t14 74t3 81.5q0 47 -3 121.5t-3 150.5q0 33 2 60.5t9 66.5t19.5 70.5t36 66t55.5 59t80.5 43.5t108.5 26v-93q-56 -5 -93.5 -25.5t-54 -53.5t-22.5 -63.5t-6 -70.5q0 -51 3 -176.5t3 -183.5q0 -38 -2 -67.5t-12 -72t-28 -73.5 t-52 -61t-82 -46l-53 -18v-6l53 -19q48 -16 82 -46t52 -61t28 -73t12 -71.5t2 -67.5q0 -58 -3 -183.5t-3 -176.5q0 -40 6 -70.5t22.5 -63.5t54 -53.5t93.5 -25.5v-93q-60 7 -108.5 26t-80.5 43.5t-55.5 59t-36 66t-19.5 70.5t-9 66.5t-2 60.5q0 76 3 150.5t3 121.5 q0 48 -3 81.5t-14 74t-31.5 67t-57.5 48t-89 28.5z" />
<glyph unicode="|" horiz-adv-x="344" d="M115 -573v2156h114v-2156h-114z" />
<glyph unicode="}" horiz-adv-x="704" d="M102 -360q56 5 93.5 25.5t54.5 53.5t23 63.5t6 70.5q0 51 -3.5 176.5t-3.5 183.5q0 38 2.5 67.5t12.5 71.5t28 73t52 61t82 46l53 19v6l-53 18q-48 16 -82 46t-52 61t-28 73.5t-12.5 72t-2.5 67.5q0 58 3.5 183.5t3.5 176.5q0 40 -6 70.5t-23 63.5t-54.5 53.5t-93.5 25.5 v93q60 -7 108.5 -26t80.5 -43.5t55.5 -59t36.5 -66t20 -70.5t9 -66.5t2 -60.5q0 -76 -3 -150.5t-3 -121.5q0 -48 2.5 -81.5t14 -74t31.5 -67t57 -48t89 -28.5v-88q-52 -7 -89 -28.5t-57 -48t-31.5 -67t-14 -74t-2.5 -81.5q0 -47 3 -121.5t3 -150.5q0 -33 -2 -60.5t-9 -66.5 t-20 -70.5t-36.5 -66t-55.5 -59t-80.5 -43.5t-108.5 -26v93z" />
<glyph unicode="~" horiz-adv-x="1099" d="M164 483q76 164 215 164q75 0 194 -45q94 -41 146 -41q95 0 143 88l74 -49q-42 -82 -91.5 -121t-121.5 -39q-51 0 -82 9t-47.5 21.5t-36 25t-63.5 21.5t-115 9q-98 0 -146 -90z" />
<glyph unicode="&#xa3;" d="M233 0v117h211v604h-211v100h211v172q0 91 29.5 175.5t77.5 142.5q116 139 340 139q100 0 215 -31l-10 -121q-98 35 -201 35q-88 0 -147 -22.5t-101 -79.5q-41 -55 -54 -116.5t-13 -137.5v-156h344v-100h-344v-604h503v-117h-850z" />
<glyph unicode="&#xa8;" horiz-adv-x="917" d="M164 1352v164h141v-164h-141zM612 1352v164h142v-164h-142z" />
<glyph unicode="&#xa9;" horiz-adv-x="1839" d="M164 717q0 153 60 293t161.5 241.5t241.5 161.5t293 60t293 -60t241 -161.5t161 -241.5t60 -293t-60 -293t-161 -241.5t-241 -161.5t-293 -60t-293 60t-241.5 161.5t-161.5 241.5t-60 293zM266 717q0 -135 51 -256t138.5 -208.5t208.5 -138.5t256 -51q180 0 330 87 t236.5 237t86.5 330q0 135 -51 256t-138 208t-208 138t-256 51q-180 0 -330 -86.5t-237 -236.5t-87 -330zM528 715q0 195 111.5 320.5t288.5 125.5q151 0 252 -35l-4 -114q-38 20 -82 29.5t-67.5 10.5t-76.5 1q-61 0 -110.5 -20t-81.5 -52.5t-54 -77t-31 -91t-9 -97.5 q0 -83 25 -148t67 -104.5t93 -59.5t107 -20q116 0 213 43l13 -113q-93 -41 -228 -41q-193 0 -309.5 123t-116.5 320z" />
<glyph unicode="&#xab;" horiz-adv-x="1044" d="M115 629l286 424h117l-268 -424l268 -424h-117zM477 629l287 424h117l-269 -424l269 -424h-117z" />
<glyph unicode="&#xad;" horiz-adv-x="860" d="M205 492v108h450v-108h-450z" />
<glyph unicode="&#xae;" horiz-adv-x="1921" d="M205 721q0 153 60 293t161.5 241.5t241.5 161.5t293 60t293 -60t241 -161.5t161 -241.5t60 -293t-60 -293t-161 -241.5t-241 -161.5t-293 -60t-293 60t-241.5 161.5t-161.5 241.5t-60 293zM307 721q0 -180 87 -330t237 -236.5t330 -86.5q135 0 256 51t208 138t138 208 t51 256t-51 256t-138 208t-208 138t-256 51q-180 0 -330 -86.5t-237 -236.5t-87 -330zM688 270v891h256q17 0 31.5 -0.5t45 -5.5t55 -14t54 -27t49 -42.5t33 -64.5t13.5 -89q0 -84 -55 -138t-136 -69v12q31 -4 58 -32t43 -66l153 -355h-127l-149 330q-13 28 -21 40.5 t-29.5 23t-56.5 10.5h-100v-404h-117zM805 776h108q89 0 139 43t50 99q0 141 -162 141h-135v-283z" />
<glyph unicode="&#xb4;" horiz-adv-x="702" d="M164 1276l182 272h193l-271 -272h-104z" />
<glyph unicode="&#xbb;" horiz-adv-x="1044" d="M164 205l268 424l-268 424h117l286 -424l-286 -424h-117zM526 205l269 424l-269 424h117l287 -424l-287 -424h-117z" />
<glyph unicode="&#x401;" horiz-adv-x="1042" d="M205 0v1434h696v-117h-561v-518h534v-117h-534v-565h600v-117h-735zM217 1565v164h141v-164h-141zM686 1565v164h141v-164h-141z" />
<glyph unicode="&#x402;" horiz-adv-x="1579" d="M31 1317v117h1018v-117h-467v-486q87 52 196.5 85.5t214.5 33.5q78 0 142 -17t107 -44t75.5 -66t50.5 -77.5t29 -84t14.5 -80.5t3.5 -71q0 -60 -3.5 -110.5t-14.5 -106t-29.5 -99t-49 -84t-72 -67.5t-100.5 -43t-132 -16q-103 0 -191 28l8 117q72 -29 168 -29 q53 0 95.5 13.5t70.5 34.5t48 55t31 66t17 78t7.5 80.5t1.5 82.5q0 41 -4.5 77t-23 84t-50 81.5t-91 57.5t-140.5 24q-90 0 -190.5 -31.5t-188.5 -87.5v-715h-136v1317h-415z" />
<glyph unicode="&#x403;" horiz-adv-x="960" d="M205 0v1434h735v-117h-600v-1317h-135zM369 1532l170 252h229l-250 -252h-149z" />
<glyph unicode="&#x404;" horiz-adv-x="1234" d="M113 694q0 67 8 133t29.5 143t56 143.5t91.5 129.5t131 108t180.5 72t234.5 27q96 0 172 -12t160 -47l-15 -127q-138 69 -327 69q-129 0 -235 -43t-175 -118t-109.5 -169t-50.5 -202h707v-117h-713q1 -88 23 -171t69 -158.5t113 -132t161 -89.5t207 -33q197 0 359 72 l4 -129q-164 -59 -360 -59q-146 0 -266.5 39t-203.5 106t-140.5 157.5t-84 193t-26.5 214.5z" />
<glyph unicode="&#x405;" horiz-adv-x="1015" d="M102 47l15 133q74 -36 161.5 -58t157.5 -22q56 0 111.5 14t106 42t82.5 78.5t32 115.5q0 64 -20.5 113.5t-75.5 94t-85.5 63t-115.5 63.5q-19 11 -29 16q-132 70 -184 111q-145 113 -145 283q0 42 8.5 81.5t27 81t52.5 75t81 61t117 42.5t156 15q158 0 311 -51l-18 -127 q-142 61 -293 61q-75 0 -131.5 -17t-87.5 -42t-49.5 -59.5t-23.5 -62t-5 -58.5q0 -22 4.5 -43t10 -37.5t19.5 -34.5t23 -29.5t31 -28.5t33.5 -25.5t40.5 -25.5t41.5 -23.5t47.5 -25.5t48 -26q64 -35 102.5 -58t85 -56t73 -63t50.5 -69.5t34.5 -86t10.5 -102.5 q0 -59 -16.5 -112.5t-53.5 -102t-91 -84t-135.5 -56.5t-180.5 -21q-174 0 -334 63z" />
<glyph unicode="&#x406;" horiz-adv-x="544" d="M205 0v1434h135v-1434h-135z" />
<glyph unicode="&#x407;" horiz-adv-x="536" d="M31 1565v164h143v-164h-143zM201 0v1434h135v-1434h-135zM362 1565v164h144v-164h-144z" />
<glyph unicode="&#x408;" horiz-adv-x="718" d="M31 4l12 119q57 -23 137 -23q199 0 199 258v1076h135v-1090q0 -75 -16 -134.5t-39 -96.5t-58.5 -63.5t-63 -39t-65.5 -19t-52.5 -7t-37.5 -0.5q-78 0 -151 20z" />
<glyph unicode="&#x409;" horiz-adv-x="2025" d="M41 -2l8 113q46 -11 82 -11q53 0 93 37.5t61.5 99t36 141t17.5 164t5 167t-1 150.5q-1 60 -1 85v490h821v-588h230q33 0 58.5 -1t82 -9t100 -22.5t97 -46t88.5 -74.5t59.5 -112t24.5 -155q0 -112 -52 -208t-154.5 -157t-234.5 -61h-434v1317h-551v-379q0 -355 -14 -497 q-30 -303 -152 -402q-68 -55 -170 -55q-50 0 -100 14zM1163 117h258q166 0 252 88.5t86 216.5q0 59 -14.5 107t-37.5 79.5t-56.5 54.5t-65 35.5t-70.5 19.5t-66 9t-58 2h-228v-612z" />
<glyph unicode="&#x40a;" horiz-adv-x="2086" d="M205 0v1434h135v-588h747v588h136v-588h229q23 0 40.5 -0.5t58 -4.5t73 -10.5t77 -21.5t79 -35t70.5 -52.5t59.5 -73t39 -97.5t15.5 -125q0 -112 -52.5 -208t-155.5 -157t-234 -61h-435v729h-747v-729h-135zM1223 117h258q166 0 252 88.5t86 216.5q0 59 -14.5 107 t-37.5 79.5t-56.5 54.5t-65.5 35.5t-71 19.5t-66 9t-58 2h-227v-612z" />
<glyph unicode="&#x40b;" horiz-adv-x="1554" d="M31 1317v117h995v-117h-451v-486q83 49 190 84t198 35q428 0 428 -399v-551h-136v520q0 35 -1 58.5t-7 60.5t-17 62t-32.5 54t-52 46t-77 29t-105.5 12q-167 0 -388 -127v-715h-135v1317h-409z" />
<glyph unicode="&#x40c;" horiz-adv-x="1294" d="M205 0v1434h135v-580v-82h2l49 51l613 611h172l-697 -678l774 -756h-190l-686 686l-35 39l-2 -2v-68v-655h-135zM446 1532l170 252h230l-250 -252h-150z" />
<glyph unicode="&#x40e;" horiz-adv-x="1253" d="M41 1434h152l368 -762l74 -180h6l64 172l319 770h147l-507 -1207q-17 -39 -23 -53.5t-23.5 -48t-29 -47.5t-33.5 -36.5t-44 -32t-53.5 -17.5t-68.5 -8q-80 0 -145 24l6 115q47 -23 121 -23q55 0 88.5 36.5t68.5 125.5l35 86zM297 1790h123q14 -37 40.5 -62.5t59.5 -36 t57.5 -14.5t49.5 -4t49.5 4t57.5 14.5t59.5 36t40.5 62.5h122q-40 -113 -129 -175.5t-200 -62.5t-200.5 62.5t-129.5 175.5z" />
<glyph unicode="&#x40f;" horiz-adv-x="1441" d="M205 0v1434h135v-1317h762v1317h135v-1434h-449v-311h-135v311h-448z" />
<glyph unicode="&#x410;" horiz-adv-x="1376" d="M31 0l569 1434h176l570 -1434h-146l-158 395h-708l-158 -395h-145zM379 512h618l-260 653l-47 135h-4l-47 -135z" />
<glyph unicode="&#x411;" horiz-adv-x="1175" d="M205 0v1434h766v-117h-631v-510h246q119 0 209 -31.5t137.5 -75.5t76.5 -103.5t36.5 -103t7.5 -87.5q0 -193 -129.5 -299.5t-348.5 -106.5h-370zM340 117h209q85 0 150.5 18t104 46.5t62.5 68t32.5 77t8.5 79.5q0 56 -16 103t-53.5 89.5t-110.5 67t-176 24.5h-211v-573z " />
<glyph unicode="&#x412;" horiz-adv-x="1181" d="M205 0v1434h383q109 0 191.5 -28.5t131.5 -79t73 -114.5t24 -139q0 -242 -248 -323v-7q129 -25 209 -119t80 -221q0 -82 -23.5 -148t-58 -107t-84.5 -71t-92 -44.5t-93 -22.5t-74.5 -9t-48.5 -1h-370zM340 117h217q346 0 346 284q0 131 -92 206t-240 75h-231v-565z M340 799h229q139 0 216 75.5t77 196.5q0 124 -81 185t-208 61h-233v-518z" />
<glyph unicode="&#x413;" horiz-adv-x="960" d="M205 0v1434h735v-117h-600v-1317h-135z" />
<glyph unicode="&#x414;" horiz-adv-x="1429" d="M41 117h121q37 55 66 108t50 109.5t35.5 101.5t23.5 108.5t14.5 104t7.5 114.5t2.5 114.5t0.5 127.5v35v394h820v-1317h166v-428h-136v311h-1036v-311h-135v428zM315 117h732v1200h-549v-293q0 -263 -9 -365q-26 -275 -156 -511q-9 -15 -18 -31z" />
<glyph unicode="&#x415;" horiz-adv-x="1042" d="M205 0v1434h696v-117h-561v-518h534v-117h-534v-565h600v-117h-735z" />
<glyph unicode="&#x416;" horiz-adv-x="1773" d="M4 0l672 762l-604 672h164l577 -654h6v654h135v-654h7l577 654h164l-604 -672l671 -762h-194l-614 725h-7v-725h-135v725h-6l-614 -725h-195z" />
<glyph unicode="&#x417;" horiz-adv-x="1040" d="M41 74l18 127q188 -101 369 -101q170 0 277.5 80t107.5 211q0 142 -98 220.5t-281 78.5h-174v117h168q338 0 338 285q0 116 -92 178.5t-244 62.5q-158 0 -344 -80l-10 129q185 68 354 68q285 0 406 -140q75 -87 75 -220q0 -127 -60.5 -215.5t-172.5 -118.5v-4 q136 -26 208 -127t72 -250q0 -81 -31.5 -147.5t-83.5 -111t-121.5 -75t-143 -44t-150.5 -13.5q-200 0 -387 90z" />
<glyph unicode="&#x418;" horiz-adv-x="1468" d="M205 0v1434h135v-1078l-8 -174h6l80 146l692 1106h154v-1434h-136v1077l9 174h-7l-71 -135l-701 -1116h-153z" />
<glyph unicode="&#x419;" horiz-adv-x="1468" d="M205 0v1434h135v-1078l-8 -174h6l78 146l694 1106h154v-1434h-136v1077l9 174h-7l-71 -135l-701 -1116h-153zM434 1696l62 78q97 -117 237 -117q141 0 238 117l61 -78q-56 -75 -134.5 -117.5t-164.5 -42.5t-164.5 42.5t-134.5 117.5z" />
<glyph unicode="&#x41a;" horiz-adv-x="1294" d="M205 0v1434h135v-580v-82h2l49 51l613 611h172l-697 -678l774 -756h-190l-686 686l-35 39l-2 -2v-68v-655h-135z" />
<glyph unicode="&#x41b;" horiz-adv-x="1368" d="M41 -2l8 113q46 -11 82 -11q53 0 93 37.5t61.5 99t36 141t17.5 164t5 167t-1 150.5q-1 60 -1 85v490h821v-1434h-135v1317h-551v-379q0 -355 -14 -497q-30 -303 -152 -402q-68 -55 -170 -55q-50 0 -100 14z" />
<glyph unicode="&#x41c;" horiz-adv-x="1916" d="M205 0v1434h213l477 -1115l59 -190h9l59 190l477 1115h213v-1434h-135v1110l4 195h-8l-70 -189l-475 -1116h-139l-475 1116l-70 189h-8l4 -195v-1110h-135z" />
<glyph unicode="&#x41d;" horiz-adv-x="1425" d="M205 0v1434h135v-633h745v633h136v-1434h-136v684h-745v-684h-135z" />
<glyph unicode="&#x41e;" horiz-adv-x="1523" d="M113 715q0 117 25 224.5t77.5 200.5t128 162t183 108.5t235.5 39.5t235.5 -39.5t183 -108.5t128 -162t77.5 -200.5t25 -224.5q0 -173 -50 -313t-138 -230.5t-205.5 -139t-255.5 -48.5t-255.5 48.5t-205.5 139t-138 230.5t-50 313zM258 715q0 -125 28.5 -228.5t77 -174 t113.5 -119.5t136.5 -71t148.5 -22t148.5 22t136.5 71t113.5 119.5t77 174t28.5 228.5t-28.5 229t-77 175t-113.5 120t-136.5 71.5t-148.5 22.5t-148.5 -22.5t-136.5 -71.5t-113.5 -120t-77 -175t-28.5 -229z" />
<glyph unicode="&#x41f;" horiz-adv-x="1427" d="M205 0v1434h1018v-1434h-136v1317h-747v-1317h-135z" />
<glyph unicode="&#x420;" horiz-adv-x="1089" d="M205 0v1434h373q198 0 314 -114t116 -300q0 -187 -115.5 -300.5t-314.5 -113.5h-238v-606h-135zM340 723h211q22 0 42 1.5t53 8t60.5 18t57.5 34t50.5 52.5t34 77.5t13.5 105.5q0 60 -16 109t-39 79t-56.5 52.5t-61 33t-61 16t-48 6.5t-29.5 1h-211v-594z" />
<glyph unicode="&#x421;" horiz-adv-x="1251" d="M113 694q0 118 25.5 225.5t82.5 205t140.5 169t208 114t276.5 42.5q186 0 330 -55l-13 -123q-156 61 -329 61q-176 0 -308 -85.5t-200 -230t-68 -325.5q0 -134 44.5 -246.5t121 -187.5t179 -116.5t218.5 -41.5q201 0 369 68v-129q-171 -55 -359 -55q-145 0 -265.5 39 t-203 106.5t-139.5 158.5t-83.5 193t-26.5 213z" />
<glyph unicode="&#x422;" horiz-adv-x="1056" d="M31 1317v117h995v-117h-430v-1317h-135v1317h-430z" />
<glyph unicode="&#x423;" horiz-adv-x="1212" d="M41 1434h152l368 -762l74 -180h6l64 172l319 770h147l-507 -1207q-17 -39 -23 -53.5t-23.5 -48t-29 -47.5t-33.5 -36.5t-44 -32t-53.5 -17.5t-68.5 -8q-80 0 -145 24l6 115q47 -23 121 -23q55 0 88.5 36.5t68.5 125.5l35 86z" />
<glyph unicode="&#x424;" horiz-adv-x="1748" d="M113 729q0 94 26 184t79 169t127 139t177 94.5t221 34.5h64v170h135v-170h64q118 0 221 -34.5t177 -94.5t127 -139t79 -169t26 -184t-26 -184t-79 -169t-127 -138.5t-177 -94t-221 -34.5h-64v-175h-135v175h-64q-118 0 -221 34.5t-177 94t-127 138.5t-79 169t-26 184z M258 729q0 -236 135 -370t350 -134h64v1008h-64q-215 0 -350 -134t-135 -370zM942 225h64q215 0 350 134t135 370t-135 370t-350 134h-64v-1008z" />
<glyph unicode="&#x425;" horiz-adv-x="1316" d="M41 0l528 760l-497 674h168l368 -519l45 -67h2l47 67l367 519h156l-486 -674l537 -760h-168l-371 526l-84 138h-4l-86 -144l-360 -520h-162z" />
<glyph unicode="&#x426;" horiz-adv-x="1488" d="M205 0v1434h135v-1317h762v1317h135v-1317h170v-428h-135v311h-1067z" />
<glyph unicode="&#x427;" horiz-adv-x="1298" d="M123 956v478h135v-476q0 -54 15.5 -96.5t37.5 -69t58 -45.5t63 -28t68.5 -13.5t58 -5t47.5 -0.5q128 0 271 19l81 10v705h136v-1434h-136v612l-81 -8q-192 -20 -287 -20q-467 0 -467 372z" />
<glyph unicode="&#x428;" horiz-adv-x="2109" d="M205 0v1434h135v-1317h647v1317h135v-1317h647v1317h136v-1434h-1700z" />
<glyph unicode="&#x429;" horiz-adv-x="2140" d="M205 0v1434h135v-1317h647v1317h135v-1317h647v1317h136v-1317h153v-428h-135v311h-1718z" />
<glyph unicode="&#x42a;" horiz-adv-x="1335" d="M41 1317v117h471v-588h229q23 0 40.5 -0.5t58 -4.5t73 -10.5t77 -21.5t79 -35t70.5 -52.5t59.5 -73t39 -97.5t15.5 -125q0 -112 -52.5 -208t-155.5 -157t-234 -61h-434v1317h-336zM512 117h258q166 0 252 88.5t86 216.5q0 59 -14.5 107t-37.5 79.5t-56.5 54.5t-65.5 35.5 t-71 19.5t-66 9t-58 2h-227v-612z" />
<glyph unicode="&#x42b;" horiz-adv-x="1650" d="M205 0v1434h135v-588h229q23 0 40.5 -0.5t58 -4.5t73 -10.5t77 -21.5t79 -35t70.5 -52.5t59.5 -73t39 -97.5t15.5 -125q0 -112 -52.5 -208t-155.5 -157t-234 -61h-434zM340 117h258q166 0 252 88.5t86 216.5q0 59 -14.5 107t-37.5 79.5t-56.5 54.5t-65.5 35.5t-71 19.5 t-66 9t-58 2h-227v-612zM1311 0v1434h135v-1434h-135z" />
<glyph unicode="&#x42c;" horiz-adv-x="1204" d="M205 0v1434h135v-588h229q23 0 40.5 -0.5t58 -4.5t73 -10.5t77 -21.5t79 -35t70.5 -52.5t59.5 -73t39 -97.5t15.5 -125q0 -112 -52.5 -208t-155.5 -157t-234 -61h-434zM340 117h258q166 0 252 88.5t86 216.5q0 59 -14.5 107t-37.5 79.5t-56.5 54.5t-65.5 35.5t-71 19.5 t-66 9t-58 2h-227v-612z" />
<glyph unicode="&#x42d;" horiz-adv-x="1296" d="M72 1364q181 86 395 86q331 0 524 -196t193 -525q0 -339 -201 -542t-557 -203q-189 0 -336 57v135q153 -76 334 -76q152 0 272.5 47t195 128t112 186t34.5 225h-764v117h764q-7 104 -44.5 197t-104.5 168.5t-174 120t-240 44.5q-217 0 -389 -98z" />
<glyph unicode="&#x42e;" horiz-adv-x="1992" d="M205 0v1434h135v-633h246q7 100 35 193t81.5 176.5t126.5 145t176.5 98t225.5 36.5q128 0 235.5 -39.5t183 -108.5t128 -162t77.5 -200.5t25 -224.5q0 -173 -50 -313t-138 -230.5t-205.5 -139t-255.5 -48.5q-128 0 -236 39.5t-182 107t-126 158t-77 190t-26 205.5h-244 v-684h-135zM729 715q0 -125 28.5 -228.5t76.5 -174t113 -119.5t136.5 -71t147.5 -22q77 0 148.5 22t136.5 71t113.5 119.5t77 174t28.5 228.5t-28.5 229t-77 175t-113.5 120t-136.5 71.5t-148.5 22.5q-95 0 -182.5 -37t-160 -109.5t-116 -194.5t-43.5 -277z" />
<glyph unicode="&#x42f;" horiz-adv-x="1208" d="M94 0l348 639q-135 40 -210.5 144t-75.5 237q0 82 27.5 155t80.5 131.5t140.5 93t197.5 34.5h402v-1434h-136v612h-288l-320 -612h-166zM301 1020q0 -139 85.5 -215t203.5 -76h278v588h-278q-133 0 -211 -84.5t-78 -212.5z" />
<glyph unicode="&#x430;" horiz-adv-x="1060" d="M92 281q0 71 23 128t58 94t89.5 64t104 41t115.5 22t110.5 9.5t101.5 1.5h68v37q0 23 -0.5 39.5t-5.5 48t-13.5 54.5t-26.5 50.5t-43 45.5t-64.5 30t-88.5 12q-169 0 -313 -79v122q149 66 313 66q371 0 371 -391v-447l6 -229h-115v178h-4q-105 -194 -342 -194 q-163 0 -253.5 84.5t-90.5 212.5zM227 289q0 -85 59 -141t148 -56q152 0 240 97t88 268v75h-117q-53 0 -98.5 -3.5t-95.5 -12.5t-88 -26.5t-70 -43.5t-49 -66t-17 -91z" />
<glyph unicode="&#x431;" horiz-adv-x="1206" d="M102 776q0 107 11 197.5t30 160t48.5 126.5t62.5 97t76.5 71.5t85.5 51t95 33.5t99 21t103 12q196 17 311 39v-121q-100 -16 -317 -34q-57 -5 -89.5 -9t-91 -19.5t-94.5 -38.5t-81 -68t-70.5 -105t-43.5 -152.5t-18 -208.5v-49h6q45 130 150 208.5t241 78.5 q101 0 189.5 -34t158 -99.5t110 -173t40.5 -244.5q0 -110 -30 -201t-79 -151.5t-114.5 -101.5t-135 -59.5t-141.5 -18.5q-90 0 -163.5 23.5t-126 63.5t-92.5 99.5t-64 125.5t-39.5 148.5t-21 161.5t-5.5 170zM258 516q0 -203 104 -313.5t256 -110.5t256.5 110.5t104.5 313.5 q0 211 -105 326.5t-256 115.5q-72 0 -136 -28t-114.5 -81t-80 -139t-29.5 -194z" />
<glyph unicode="&#x432;" horiz-adv-x="1069" d="M164 0v1051h416q159 0 242 -78.5t83 -200.5q0 -147 -145 -215v-4q87 -19 141.5 -91.5t54.5 -168.5q0 -60 -18 -108t-44 -77.5t-64 -51.5t-69.5 -32.5t-69.5 -16t-54.5 -6.5t-34.5 -1h-438zM293 109h299q115 0 172 53.5t57 130.5q0 86 -61 142.5t-189 56.5h-278v-383z M293 600h278q9 0 18 0.5t31 3.5t40.5 8.5t41 17.5t38 28.5t26 43.5t10.5 60q0 31 -9 59.5t-30 57t-63.5 46t-102.5 17.5h-278v-342z" />
<glyph unicode="&#x433;" horiz-adv-x="808" d="M164 0v1051h643v-109h-514v-942h-129z" />
<glyph unicode="&#x434;" horiz-adv-x="1191" d="M10 109h115q88 129 119.5 249.5t31.5 290.5v402h701v-942h153v-392h-129v283h-862v-283h-129v392zM272 109h576v833h-442v-295q0 -176 -27 -289t-107 -249z" />
<glyph unicode="&#x435;" horiz-adv-x="1040" d="M82 543q0 243 127 383.5t330 140.5q419 0 419 -539v-41h-741q-1 -45 6 -91.5t30 -103t59.5 -99.5t102 -72t150.5 -29q181 0 314 68v-119q-134 -57 -316 -57q-226 0 -353.5 145.5t-127.5 413.5zM217 596h606q1 35 -2 71t-19 91.5t-44.5 97t-85 72t-133.5 30.5t-139 -31.5 t-100.5 -84t-59.5 -115.5t-23 -131z" />
<glyph unicode="&#x436;" horiz-adv-x="1517" d="M10 0l541 561l-481 490h157l461 -476h6v476h129v-476h6l461 476h158l-481 -490l540 -561h-184l-494 528h-6v-528h-129v528h-6l-493 -528h-185z" />
<glyph unicode="&#x437;" horiz-adv-x="907" d="M61 53l15 119q142 -80 303 -80q52 0 99.5 11.5t89 34.5t66.5 63t25 92q0 61 -22.5 102t-65.5 61.5t-90.5 28t-113.5 7.5h-103v108h103q70 0 120 16t73.5 35.5t37 49.5t15 45.5t1.5 35.5q0 88 -67 132t-182 44q-131 0 -256 -59l-5 113q135 55 273 55q183 0 274.5 -80.5 t91.5 -202.5q0 -86 -43 -144t-112 -81v-6q28 -6 54 -16.5t55 -31t49.5 -47.5t34.5 -70t14 -95q0 -133 -106 -221t-312 -88q-157 0 -316 69z" />
<glyph unicode="&#x438;" horiz-adv-x="1216" d="M164 0v1051h129v-770l-2 -111h6l70 113l542 768h144v-1051h-129v770l2 111h-6l-70 -111l-543 -770h-143z" />
<glyph unicode="&#x439;" horiz-adv-x="1216" d="M164 0v1051h129v-770l-2 -111h6l70 113l542 768h144v-1051h-129v770l2 111h-6l-70 -111l-543 -770h-143zM309 1452l62 72q97 -117 237 -117q141 0 238 117l61 -72q-56 -75 -134.5 -117.5t-164.5 -42.5t-164.5 42.5t-134.5 117.5z" />
<glyph unicode="&#x43a;" horiz-adv-x="1011" d="M164 0v1051h129v-463h6l481 463h166l-516 -490l571 -561h-182l-520 520h-6v-520h-129z" />
<glyph unicode="&#x43b;" horiz-adv-x="1105" d="M14 -4v104q38 -10 70 -10q115 0 140.5 111.5t25.5 560.5v289h692v-1051h-129v942h-434v-194q0 -161 -1.5 -238.5t-9 -185t-23.5 -154.5t-45 -99t-74.5 -69.5t-110.5 -17.5q-59 0 -101 12z" />
<glyph unicode="&#x43c;" horiz-adv-x="1456" d="M164 0v1051h182l336 -777l41 -141h8l60 141l339 777h162v-1051h-129v748l11 170h-7l-57 -170l-328 -748h-110l-320 748l-63 170h-6l10 -170v-748h-129z" />
<glyph unicode="&#x43d;" horiz-adv-x="1155" d="M164 0v1051h129v-451h569v451h129v-1051h-129v492h-569v-492h-129z" />
<glyph unicode="&#x43e;" horiz-adv-x="1155" d="M92 524q0 246 133 394.5t353 148.5t352.5 -148.5t132.5 -394.5q0 -244 -133 -392t-352 -148t-352.5 148t-133.5 392zM227 524q0 -63 12.5 -123t40.5 -116.5t68 -99t99.5 -68t130.5 -25.5q88 0 157.5 38.5t110.5 102t61.5 138t20.5 153.5q0 80 -20.5 155t-61.5 138.5 t-110.5 102t-157.5 38.5q-71 0 -130.5 -25.5t-99.5 -68t-68 -99t-40.5 -117.5t-12.5 -124z" />
<glyph unicode="&#x43f;" horiz-adv-x="1134" d="M164 0v1051h807v-1051h-129v942h-549v-942h-129z" />
<glyph unicode="&#x440;" horiz-adv-x="1163" d="M164 1051h123v-217h6q15 42 37.5 78t60 73.5t96 59.5t131.5 22q216 0 334.5 -144.5t118.5 -396.5q0 -139 -37.5 -246t-102 -170t-144 -94.5t-169.5 -31.5q-103 0 -184.5 55t-130.5 149h-6l4 -100v-537h-129v1297zM301 526q0 -96 21.5 -173t54.5 -124.5t76.5 -79.5 t84 -44.5t80.5 -12.5t80.5 12.5t84 44.5t77 79.5t55 124.5t21.5 173q0 95 -21.5 171.5t-55 124t-77 79t-84 44.5t-80.5 13t-80.5 -13t-84 -44.5t-76.5 -79t-54.5 -124t-21.5 -171.5z" />
<glyph unicode="&#x441;" horiz-adv-x="942" d="M92 524q0 106 33 201.5t96.5 173t166.5 123t233 45.5q126 0 251 -41l-6 -115q-124 47 -243 47q-181 0 -288.5 -120t-107.5 -314q0 -109 33 -193.5t91 -135.5t130.5 -77t155.5 -26q118 0 231 43l13 -110q-107 -41 -244 -41q-253 0 -399 148.5t-146 391.5z" />
<glyph unicode="&#x442;" horiz-adv-x="825" d="M20 942v109h785v-109h-328v-942h-129v942h-328z" />
<glyph unicode="&#x443;" horiz-adv-x="1003" d="M61 1051h138l276 -801l33 -105h2l33 103l266 803h133l-448 -1289q-36 -102 -94.5 -157.5t-159.5 -55.5q-41 0 -115 19l12 115q86 -19 90 -19q65 0 103 39t65 125l45 137z" />
<glyph unicode="&#x444;" horiz-adv-x="1562" d="M92 524q0 128 28 227t71 157.5t101.5 95.5t113 50t112.5 13q87 0 195 -84l6 2l-2 449h129l-2 -449l6 -2q67 53 140.5 74t141.5 11t130 -52t108 -109t73 -166t27 -217t-27 -216.5t-73 -164.5t-108 -107.5t-130 -51.5t-141.5 10.5t-140.5 71.5l-6 -3l2 -512h-129l2 512 l-6 3q-105 -82 -195 -82q-47 0 -92.5 9.5t-95 31.5t-91 63t-75.5 98t-53 144t-19 194zM227 524q0 -82 12.5 -149t31.5 -110.5t46.5 -77t53.5 -51t55.5 -28t50 -13.5t39.5 -3q105 0 201 80v705q-97 81 -201 81q-40 0 -77.5 -10.5t-77 -40.5t-68.5 -77t-47.5 -125.5 t-18.5 -180.5zM846 172q65 -55 134.5 -74.5t132.5 0t113 70.5t79.5 143.5t29.5 212.5t-29.5 213.5t-79.5 145t-112.5 71.5t-132.5 -0.5t-135 -76.5v-705z" />
<glyph unicode="&#x445;" horiz-adv-x="1019" d="M61 0l365 561l-340 490h164l199 -306l57 -98h2l57 101l185 303h151l-321 -490l378 -561h-167l-234 379l-51 94h-2l-53 -94l-240 -379h-150z" />
<glyph unicode="&#x446;" horiz-adv-x="1179" d="M164 0v1051h129v-942h545v942h129v-942h161v-392h-129v283h-835z" />
<glyph unicode="&#x447;" horiz-adv-x="1028" d="M82 715v336h129v-316q0 -35 4.5 -58.5t20.5 -50t45 -42.5t81.5 -26.5t126.5 -10.5q123 0 246 24v480h129v-1051h-129v463q-138 -25 -264 -25q-116 0 -195 20.5t-120 60t-57.5 86.5t-16.5 110z" />
<glyph unicode="&#x448;" horiz-adv-x="1624" d="M164 0v1051h129v-942h455v942h129v-942h454v942h129v-1051h-1296z" />
<glyph unicode="&#x449;" horiz-adv-x="1660" d="M164 0v1051h129v-942h455v942h129v-942h454v942h129v-942h150v-392h-129v283h-1317z" />
<glyph unicode="&#x44a;" horiz-adv-x="1202" d="M41 942v109h418v-414h311q155 0 247.5 -88t92.5 -230q0 -143 -90.5 -231t-249.5 -88h-440v942h-289zM459 109h272q29 0 58.5 4.5t64 19t60.5 36.5t43.5 61t17.5 89q0 36 -10.5 69t-35.5 66.5t-76 53.5t-122 20h-272v-419z" />
<glyph unicode="&#x44b;" horiz-adv-x="1431" d="M164 0v1051h129v-414h272q24 0 45.5 -1t62.5 -7.5t74 -18.5t71.5 -35.5t64.5 -56t43.5 -84t17.5 -115.5t-17.5 -116t-44 -84.5t-65 -56.5t-71.5 -35.5t-74 -18t-62 -7.5t-45 -1h-401zM293 109h262q254 0 254 210q0 42 -11.5 76t-28 55.5t-42 37t-47 23t-49.5 12t-43 5 t-33 0.5h-262v-419zM1139 0v1051h129v-1051h-129z" />
<glyph unicode="&#x44c;" horiz-adv-x="1013" d="M164 0v1051h129v-414h272q24 0 45.5 -1t62.5 -7.5t74 -18.5t71.5 -35.5t64.5 -56t43.5 -84t17.5 -115.5t-17.5 -116t-44 -84.5t-65 -56.5t-71.5 -35.5t-74 -18t-62 -7.5t-45 -1h-401zM293 109h262q254 0 254 210q0 42 -11.5 76t-28 55.5t-42 37t-47 23t-49.5 12t-43 5 t-33 0.5h-262v-419z" />
<glyph unicode="&#x44d;" horiz-adv-x="940" d="M61 33l5 114q119 -55 251 -55q97 0 174.5 34t124.5 91.5t71.5 127t25.5 144.5h-498v109h498q-3 72 -28.5 136t-72.5 114.5t-121 80t-167 29.5q-128 0 -254 -59l-7 115q117 53 261 53q108 0 196.5 -28.5t148.5 -78t101 -118t59.5 -147t18.5 -167.5q0 -246 -144.5 -395 t-398.5 -149q-114 0 -244 49z" />
<glyph unicode="&#x44e;" horiz-adv-x="1521" d="M164 0v1051h129v-459h166q7 96 41.5 180.5t93.5 151t149.5 105t200.5 38.5q142 0 242 -57q107 -61 175.5 -186.5t68.5 -299.5q0 -244 -133.5 -392t-352.5 -148q-118 0 -211.5 42.5t-150.5 114t-88 158.5t-35 184h-166v-483h-129zM594 524q0 -79 20.5 -153.5t61.5 -138 t110.5 -102t157.5 -38.5t157.5 38.5t110.5 102t61.5 138t20.5 153.5q0 80 -20.5 155t-61.5 138.5t-110.5 102t-157.5 38.5t-157.5 -38.5t-110.5 -102t-61.5 -138.5t-20.5 -155z" />
<glyph unicode="&#x44f;" horiz-adv-x="1019" d="M92 0l246 461q-30 8 -58 21t-57.5 36t-50.5 53t-35 74.5t-14 97.5q0 58 20 111.5t58.5 98t103 71.5t144.5 27h407v-1051h-129v434h-256l-223 -434h-156zM258 743q0 -81 54.5 -140.5t164.5 -59.5h250v399h-250q-110 0 -164.5 -59.5t-54.5 -139.5z" />
<glyph unicode="&#x451;" horiz-adv-x="1040" d="M82 543q0 243 127 383.5t330 140.5q419 0 419 -539v-41h-741q-1 -45 6 -91.5t30 -103t59.5 -99.5t102 -72t150.5 -29q181 0 314 68v-119q-134 -57 -316 -57q-226 0 -353.5 145.5t-127.5 413.5zM217 596h606q1 35 -2 71t-19 91.5t-44.5 97t-85 72t-133.5 30.5t-139 -31.5 t-100.5 -84t-59.5 -115.5t-23 -131zM225 1352v164h142v-164h-142zM674 1352v164h141v-164h-141z" />
<glyph unicode="&#x452;" horiz-adv-x="1212" d="M41 1255v93h172v213h129v-213h434v-93h-434v-204l-6 -215h2q39 101 126 166t191 65q74 0 134 -20.5t100 -53.5t70 -82t47 -98.5t27 -111.5t13 -112t3 -108q0 -127 -10 -226.5t-35.5 -193t-68 -166.5t-109 -136.5t-156.5 -112.5l-47 104q59 32 104.5 70.5t76.5 78t53 93 t34 101.5t18.5 116.5t8.5 125.5t2 142q0 38 -0.5 61.5t-3 66.5t-7.5 72t-15 69t-24 67t-36.5 57t-50.5 47.5t-66.5 29t-85.5 11.5q-79 0 -146.5 -52t-105 -131.5t-37.5 -162.5v-612h-129v1255h-172z" />
<glyph unicode="&#x453;" horiz-adv-x="808" d="M164 0v1051h643v-109h-514v-942h-129zM272 1276l183 272h192l-270 -272h-105z" />
<glyph unicode="&#x454;" horiz-adv-x="905" d="M82 524q0 128 39 231.5t107.5 171t160.5 104t199 36.5q137 0 268 -41l-6 -115q-110 47 -256 47q-76 0 -138.5 -23t-103 -59t-69.5 -84.5t-43.5 -95.5t-18.5 -96h457v-108h-459q1 -77 23.5 -147t66.5 -127.5t117.5 -91.5t167.5 -34q159 0 258 43l12 -115 q-119 -36 -272 -36q-158 0 -275 72.5t-176 194t-59 273.5z" />
<glyph unicode="&#x455;" horiz-adv-x="858" d="M102 31l9 123q133 -62 272 -62q109 0 173.5 50.5t64.5 140.5q0 46 -12 78t-47.5 58.5t-60.5 39t-89 40.5q-16 7 -25 11q-35 15 -58 26t-54 28.5t-51.5 33.5t-42.5 39t-34.5 47.5t-21 57t-8.5 69.5q0 119 98 187.5t254 68.5q132 0 250 -55l-8 -103q-116 49 -248 49 q-57 0 -102.5 -11t-81 -45.5t-35.5 -90.5q0 -33 9 -57.5t24.5 -44t52 -40.5t75 -38.5t109.5 -46.5q36 -16 64 -30.5t63.5 -41.5t58.5 -57t39.5 -75t16.5 -97q0 -56 -21 -107.5t-64 -95.5t-118.5 -70t-173.5 -26q-145 0 -277 47z" />
<glyph unicode="&#x456;" horiz-adv-x="468" d="M164 1352v164h141v-164h-141zM170 0v1051h129v-1051h-129z" />
<glyph unicode="&#x457;" horiz-adv-x="495" d="M10 1352v164h135v-164h-135zM184 0v1051h129v-1051h-129zM352 1352v164h135v-164h-135z" />
<glyph unicode="&#x458;" horiz-adv-x="456" d="M-61 -326q40 -12 98 -12q25 0 44 5.5t39.5 21.5t32 53.5t11.5 93.5v1215h129v-1203q0 -33 -2.5 -60t-9.5 -64t-23 -64.5t-40.5 -53t-65 -39t-93.5 -13.5q-65 0 -120 16v104zM164 1356v164h129v-164h-129z" />
<glyph unicode="&#x459;" horiz-adv-x="1675" d="M14 -8v108q31 -8 66 -8q95 0 137 109q18 49 23.5 155t5.5 406v289h696v-414h311q155 0 247.5 -88t92.5 -230q0 -143 -90.5 -231t-249.5 -88h-440v942h-438v-194v-43q0 -295 -7 -403.5t-40 -174.5q-70 -143 -238 -143q-43 0 -76 8zM942 109h272q29 0 58.5 4.5t64 19 t60.5 36.5t43.5 61t17.5 89q0 36 -10.5 69t-35.5 66.5t-76 53.5t-122 20h-272v-419z" />
<glyph unicode="&#x45a;" horiz-adv-x="1724" d="M164 0v1051h129v-414h569v414h129v-414h312q155 0 247 -88t92 -230q0 -143 -90 -231t-249 -88h-441v528h-569v-528h-129zM991 109h273q29 0 58.5 4.5t64 19t60 36.5t43 61t17.5 89q0 28 -5.5 54.5t-22 55.5t-42.5 50t-70.5 35t-102.5 14h-273v-419z" />
<glyph unicode="&#x45b;" horiz-adv-x="1204" d="M41 1266v92h174v203h129v-203h463v-92h-463v-215l-8 -215h2q43 107 133 169t201 62q368 0 368 -424v-643h-129v647q0 125 -35 194q-60 117 -214 117q-72 0 -132.5 -29.5t-99.5 -78.5t-61.5 -110.5t-24.5 -127.5v-612h-129v1266h-174z" />
<glyph unicode="&#x45c;" horiz-adv-x="1011" d="M164 0v1051h129v-463h6l481 463h166l-516 -490l571 -561h-182l-520 520h-6v-520h-129zM317 1276l183 272h192l-270 -272h-105z" />
<glyph unicode="&#x45e;" horiz-adv-x="1003" d="M61 1051h138l276 -801l33 -105h2l33 103l266 803h133l-448 -1289q-36 -102 -94.5 -157.5t-159.5 -55.5q-41 0 -115 19l12 115q86 -19 90 -19q65 0 103 39t65 125l45 137zM203 1452l61 72q97 -117 238 -117q140 0 237 117l62 -72q-56 -75 -134.5 -117.5t-164.5 -42.5 t-164.5 42.5t-134.5 117.5z" />
<glyph unicode="&#x45f;" horiz-adv-x="1136" d="M164 0v1051h129v-942h551v942h129v-1051h-340v-303h-129v303h-340z" />
<glyph unicode="&#x490;" horiz-adv-x="960" d="M205 0v1434h600v307h135v-424h-600v-1317h-135z" />
<glyph unicode="&#x491;" horiz-adv-x="800" d="M164 0v1051h500v204h116v-313h-487v-942h-129z" />
<glyph unicode="&#x2000;" horiz-adv-x="895" />
<glyph unicode="&#x2001;" horiz-adv-x="1790" />
<glyph unicode="&#x2002;" horiz-adv-x="895" />
<glyph unicode="&#x2003;" horiz-adv-x="1790" />
<glyph unicode="&#x2004;" horiz-adv-x="596" />
<glyph unicode="&#x2005;" horiz-adv-x="447" />
<glyph unicode="&#x2006;" horiz-adv-x="298" />
<glyph unicode="&#x2007;" horiz-adv-x="298" />
<glyph unicode="&#x2008;" horiz-adv-x="223" />
<glyph unicode="&#x2009;" horiz-adv-x="358" />
<glyph unicode="&#x200a;" horiz-adv-x="99" />
<glyph unicode="&#x2010;" horiz-adv-x="860" d="M205 492v108h450v-108h-450z" />
<glyph unicode="&#x2011;" horiz-adv-x="860" d="M205 492v108h450v-108h-450z" />
<glyph unicode="&#x2012;" horiz-adv-x="860" d="M205 492v108h450v-108h-450z" />
<glyph unicode="&#x2013;" horiz-adv-x="1310" d="M143 600v115h1024v-115h-1024z" />
<glyph unicode="&#x2014;" horiz-adv-x="1548" d="M143 600v115h1262v-115h-1262z" />
<glyph unicode="&#x2018;" horiz-adv-x="620" d="M164 987l151 447h142l-113 -447h-180z" />
<glyph unicode="&#x2019;" horiz-adv-x="497" d="M102 987l113 447h180l-151 -447h-142z" />
<glyph unicode="&#x201c;" horiz-adv-x="851" d="M102 987l152 447h141l-112 -447h-181zM457 987l151 447h142l-113 -447h-180z" />
<glyph unicode="&#x201d;" horiz-adv-x="851" d="M102 987l113 447h180l-151 -447h-142zM457 987l112 447h181l-152 -447h-141z" />
<glyph unicode="&#x201e;" horiz-adv-x="851" d="M102 -264l113 446h180l-151 -446h-142zM457 -264l112 446h181l-152 -446h-141z" />
<glyph unicode="&#x2026;" horiz-adv-x="1118" d="M102 0v176h168v-176h-168zM475 0v176h168v-176h-168zM848 0v176h168v-176h-168z" />
<glyph unicode="&#x202f;" horiz-adv-x="358" />
<glyph unicode="&#x205f;" horiz-adv-x="447" />
<glyph unicode="&#x20ac;" d="M0 543l31 114h125q-2 20 -2 60q0 32 4 94h-158l29 115h147q47 208 184 342q182 182 506 182q154 0 310 -55l-13 -123q-148 61 -317 61q-242 0 -393 -172q-93 -104 -125 -235h745l-31 -115h-735q-8 -58 -8 -88q0 -43 2 -66h703l-29 -114h-660q28 -159 140 -281 q149 -162 383 -162q172 0 352 68v-129q-173 -55 -350 -55q-312 0 -492 188q-69 74 -115.5 172t-64.5 199h-168z" />
<glyph unicode="&#x2122;" horiz-adv-x="2060" d="M205 1343v91h598v-91h-250v-770h-98v770h-250zM924 573v861h159l287 -686l25 -103h2l24 103l287 686h147v-861h-98v666l10 117h-4l-43 -115l-286 -668h-88l-285 674l-39 109h-4l4 -117v-666h-98z" />
<glyph unicode="&#x25fc;" horiz-adv-x="1054" d="M0 0v1055h1055v-1055h-1055z" />
</font>
</defs>
</svg>
